<svg data-v-fde0c5aa="" xmlns="http://www.w3.org/2000/svg" viewBox="0 95 300 95" class="iconLeft"><!----><defs data-v-fde0c5aa=""><!----></defs><rect data-v-fde0c5aa="" fill="transparent" x="0" y="0" width="300px" height="300px" class="logo-background-square"></rect><defs data-v-fde0c5aa=""><!----></defs><g data-v-fde0c5aa="" id="bb10579f-b633-41a4-93fb-73e6d3e47e39" fill="#000000" transform="matrix(2.112568237083132,0,0,2.112568237083132,86.15676041765212,130.5326828692511)"><path d="M5.52 14.35L8.71 4.58L6.87 4.58L5.38 9.34L4.52 12.59L4.48 12.59L3.61 9.34L2.11 4.58L0.22 4.58L3.42 14.35ZM12.45 14.52C13.80 14.52 14.87 14 15.47 13.17L14.50 12.10C14.06 12.67 13.52 13.09 12.64 13.09C11.47 13.09 10.86 12.38 10.86 11.33L10.86 11.14L15.72 11.14L15.72 10.56C15.72 8.55 14.67 6.87 12.39 6.87C10.25 6.87 9.00 8.37 9.00 10.68C9.00 13.02 10.29 14.52 12.45 14.52ZM12.42 8.22C13.34 8.22 13.86 8.90 13.86 9.91L13.86 10.04L10.86 10.04L10.86 9.93C10.86 8.92 11.48 8.22 12.42 8.22ZM19.70 14.52C21.52 14.52 22.71 13.54 22.71 12.12C22.71 10.91 21.94 10.19 20.34 9.97L19.60 9.87C18.91 9.76 18.65 9.53 18.65 9.04C18.65 8.60 18.98 8.29 19.75 8.29C20.47 8.29 21.08 8.62 21.50 9.07L22.55 8.02C21.85 7.29 21.13 6.87 19.70 6.87C18.03 6.87 16.93 7.77 16.93 9.18C16.93 10.51 17.79 11.20 19.36 11.40L20.09 11.49C20.73 11.58 20.99 11.84 20.99 12.26C20.99 12.78 20.62 13.10 19.77 13.10C18.94 13.10 18.30 12.73 17.77 12.11L16.67 13.17C17.40 14.01 18.31 14.52 19.70 14.52ZM26.46 14.35L27.75 14.35L27.75 12.92L26.36 12.92L26.36 8.47L27.86 8.47L27.86 7.04L26.36 7.04L26.36 5.04L24.75 5.04L24.75 6.29C24.75 6.79 24.58 7.04 24.05 7.04L23.49 7.04L23.49 8.47L24.57 8.47L24.57 12.49C24.57 13.68 25.23 14.35 26.46 14.35ZM34.68 14.35L34.68 10.22L38.54 10.22L38.54 8.58L34.68 8.58L34.68 6.22L39.12 6.22L39.12 4.58L32.83 4.58L32.83 14.35ZM41.69 5.98C42.42 5.98 42.74 5.60 42.74 5.08L42.74 4.80C42.74 4.28 42.42 3.91 41.69 3.91C40.95 3.91 40.64 4.28 40.64 4.80L40.64 5.08C40.64 5.60 40.95 5.98 41.69 5.98ZM40.80 14.35L42.59 14.35L42.59 7.04L40.80 7.04ZM46.45 14.35L46.45 9.52C46.45 8.74 47.17 8.34 47.91 8.34C48.76 8.34 49.11 8.88 49.11 9.91L49.11 14.35L50.90 14.35L50.90 9.73C50.90 7.91 50.06 6.87 48.57 6.87C47.43 6.87 46.82 7.48 46.52 8.26L46.45 8.26L46.45 7.04L44.66 7.04L44.66 14.35ZM54.70 14.52C55.79 14.52 56.59 14.03 56.83 13.09L56.91 13.09C57.02 13.85 57.50 14.35 58.27 14.35L59.26 14.35L59.26 12.92L58.53 12.92L58.53 9.48C58.53 7.81 57.48 6.87 55.51 6.87C54.04 6.87 53.19 7.43 52.65 8.27L53.72 9.23C54.07 8.72 54.54 8.30 55.38 8.30C56.34 8.30 56.74 8.78 56.74 9.59L56.74 10.12L55.50 10.12C53.51 10.12 52.37 10.86 52.37 12.36C52.37 13.66 53.21 14.52 54.70 14.52ZM55.30 13.22C54.60 13.22 54.19 12.92 54.19 12.33L54.19 12.10C54.19 11.52 54.66 11.20 55.59 11.20L56.74 11.20L56.74 12.17C56.74 12.85 56.10 13.22 55.30 13.22ZM62.51 14.35L62.51 9.52C62.51 8.74 63.22 8.34 63.97 8.34C64.82 8.34 65.17 8.88 65.17 9.91L65.17 14.35L66.96 14.35L66.96 9.73C66.96 7.91 66.12 6.87 64.62 6.87C63.49 6.87 62.87 7.48 62.58 8.26L62.51 8.26L62.51 7.04L60.72 7.04L60.72 14.35ZM71.83 14.52C73.25 14.52 74.27 13.87 74.75 12.59L73.37 11.93C73.11 12.59 72.69 13.08 71.83 13.08C70.84 13.08 70.34 12.39 70.34 11.37L70.34 10.04C70.34 9.02 70.84 8.32 71.83 8.32C72.60 8.32 73.07 8.76 73.23 9.38L74.70 8.72C74.27 7.57 73.30 6.87 71.83 6.87C69.68 6.87 68.46 8.34 68.46 10.68C68.46 13.03 69.68 14.52 71.83 14.52ZM79.02 14.52C80.37 14.52 81.44 14 82.04 13.17L81.07 12.10C80.63 12.67 80.09 13.09 79.21 13.09C78.04 13.09 77.43 12.38 77.43 11.33L77.43 11.14L82.29 11.14L82.29 10.56C82.29 8.55 81.24 6.87 78.96 6.87C76.82 6.87 75.57 8.37 75.57 10.68C75.57 13.02 76.86 14.52 79.02 14.52ZM78.99 8.22C79.91 8.22 80.43 8.90 80.43 9.91L80.43 10.04L77.43 10.04L77.43 9.93C77.43 8.92 78.05 8.22 78.99 8.22Z"></path></g><defs data-v-fde0c5aa=""><!----></defs><g data-v-fde0c5aa="" id="280a7740-970a-482f-8696-da41ed89647c" stroke="none" fill="#0bdf87" transform="matrix(1.0506726696028759,0,0,1.0506726696028759,40,133.189237286354)"><path d="M9.382 8.675h13.943v13.943L32 31.293V0H.707zM22.618 23.325H8.675V9.382L0 .707V32h31.293z"></path></g><!----></svg>