<svg data-v-fde0c5aa="" xmlns="http://www.w3.org/2000/svg" viewBox="0 95 300 95" class="iconLeft"><!----><defs data-v-fde0c5aa=""><!----></defs><rect data-v-fde0c5aa="" fill="transparent" x="0" y="0" width="300px" height="300px" class="logo-background-square"></rect><defs data-v-fde0c5aa=""><!----></defs><g data-v-fde0c5aa="" id="a4f66559-0137-4243-8695-6d92832e46c0" fill="#000000" transform="matrix(2.3062782723456348,0,0,2.3062782723456348,89.19703959867486,128.74764481856525)"><path d="M5.52 14.35L8.71 4.58L6.87 4.58L5.38 9.34L4.52 12.59L4.48 12.59L3.61 9.34L2.11 4.58L0.22 4.58L3.42 14.35ZM12.45 14.52C13.80 14.52 14.87 14 15.47 13.17L14.50 12.10C14.06 12.67 13.52 13.09 12.64 13.09C11.47 13.09 10.86 12.38 10.86 11.33L10.86 11.14L15.72 11.14L15.72 10.56C15.72 8.55 14.67 6.87 12.39 6.87C10.25 6.87 9.00 8.37 9.00 10.68C9.00 13.02 10.29 14.52 12.45 14.52ZM12.42 8.22C13.34 8.22 13.86 8.90 13.86 9.91L13.86 10.04L10.86 10.04L10.86 9.93C10.86 8.92 11.48 8.22 12.42 8.22ZM19.70 14.52C21.52 14.52 22.71 13.54 22.71 12.12C22.71 10.91 21.94 10.19 20.34 9.97L19.60 9.87C18.91 9.76 18.65 9.53 18.65 9.04C18.65 8.60 18.98 8.29 19.75 8.29C20.47 8.29 21.08 8.62 21.50 9.07L22.55 8.02C21.85 7.29 21.13 6.87 19.70 6.87C18.03 6.87 16.93 7.77 16.93 9.18C16.93 10.51 17.79 11.20 19.36 11.40L20.09 11.49C20.73 11.58 20.99 11.84 20.99 12.26C20.99 12.78 20.62 13.10 19.77 13.10C18.94 13.10 18.30 12.73 17.77 12.11L16.67 13.17C17.40 14.01 18.31 14.52 19.70 14.52ZM26.46 14.35L27.75 14.35L27.75 12.92L26.36 12.92L26.36 8.47L27.86 8.47L27.86 7.04L26.36 7.04L26.36 5.04L24.75 5.04L24.75 6.29C24.75 6.79 24.58 7.04 24.05 7.04L23.49 7.04L23.49 8.47L24.57 8.47L24.57 12.49C24.57 13.68 25.23 14.35 26.46 14.35ZM34.68 14.35L34.68 10.22L38.54 10.22L38.54 8.58L34.68 8.58L34.68 6.22L39.12 6.22L39.12 4.58L32.83 4.58L32.83 14.35ZM41.69 5.98C42.42 5.98 42.74 5.60 42.74 5.08L42.74 4.80C42.74 4.28 42.42 3.91 41.69 3.91C40.95 3.91 40.64 4.28 40.64 4.80L40.64 5.08C40.64 5.60 40.95 5.98 41.69 5.98ZM40.80 14.35L42.59 14.35L42.59 7.04L40.80 7.04ZM46.47 14.52C47.56 14.52 48.36 14.03 48.59 13.09L48.68 13.09C48.79 13.85 49.27 14.35 50.04 14.35L51.03 14.35L51.03 12.92L50.30 12.92L50.30 9.48C50.30 7.81 49.25 6.87 47.28 6.87C45.81 6.87 44.95 7.43 44.42 8.27L45.49 9.23C45.84 8.72 46.31 8.30 47.15 8.30C48.10 8.30 48.51 8.78 48.51 9.59L48.51 10.12L47.26 10.12C45.28 10.12 44.14 10.86 44.14 12.36C44.14 13.66 44.98 14.52 46.47 14.52ZM47.07 13.22C46.37 13.22 45.96 12.92 45.96 12.33L45.96 12.10C45.96 11.52 46.42 11.20 47.36 11.20L48.51 11.20L48.51 12.17C48.51 12.85 47.87 13.22 47.07 13.22ZM54.28 14.35L54.28 9.52C54.28 8.74 54.99 8.34 55.73 8.34C56.59 8.34 56.94 8.88 56.94 9.91L56.94 14.35L58.73 14.35L58.73 9.73C58.73 7.91 57.89 6.87 56.39 6.87C55.26 6.87 54.64 7.48 54.35 8.26L54.28 8.26L54.28 7.04L52.49 7.04L52.49 14.35ZM63.60 14.52C65.02 14.52 66.04 13.87 66.51 12.59L65.14 11.93C64.88 12.59 64.46 13.08 63.60 13.08C62.61 13.08 62.10 12.39 62.10 11.37L62.10 10.04C62.10 9.02 62.61 8.32 63.60 8.32C64.37 8.32 64.83 8.76 65.00 9.38L66.47 8.72C66.04 7.57 65.07 6.87 63.60 6.87C61.45 6.87 60.23 8.34 60.23 10.68C60.23 13.03 61.45 14.52 63.60 14.52ZM70.78 14.52C72.14 14.52 73.21 14 73.81 13.17L72.84 12.10C72.39 12.67 71.86 13.09 70.98 13.09C69.80 13.09 69.20 12.38 69.20 11.33L69.20 11.14L74.06 11.14L74.06 10.56C74.06 8.55 73.01 6.87 70.73 6.87C68.59 6.87 67.34 8.37 67.34 10.68C67.34 13.02 68.63 14.52 70.78 14.52ZM70.76 8.22C71.68 8.22 72.20 8.90 72.20 9.91L72.20 10.04L69.20 10.04L69.20 9.93C69.20 8.92 69.82 8.22 70.76 8.22Z"></path></g><defs data-v-fde0c5aa=""><!----></defs><g data-v-fde0c5aa="" id="26e17459-52a9-40cb-b2f7-8ad2b12ccc9c" stroke="none" fill="#0bdf87" transform="matrix(1.14701315049505,0,0,1.14701315049505,40,131.6477895920792)"><path d="M9.382 8.675h13.943v13.943L32 31.293V0H.707zM22.618 23.325H8.675V9.382L0 .707V32h31.293z"></path></g><!----></svg>